<svg xmlns="http://www.w3.org/2000/svg" width="38" height="16" viewBox="0 0 38 16">
  <g id="Group_2" data-name="Group 2" transform="translate(0.137 0.047)">
    <path id="Union_1" data-name="Union 1" d="M2,16a2,2,0,0,1-2-2V2A2,2,0,0,1,2,0H33.535a2,2,0,0,1,2,2v.933H37a1,1,0,0,1,1,1v8.4a1,1,0,0,1-1,1H35.535V14a2,2,0,0,1-2,2Z" transform="translate(-0.137 -0.047)" fill="#fff"/>
    <rect id="Rectangle_8" data-name="Rectangle 8" width="21" height="10" rx="1" transform="translate(2.863 2.953)" fill="#003486"/>
  </g>
</svg>
