<svg xmlns="http://www.w3.org/2000/svg" width="16.81" height="29.404" viewBox="0 0 16.81 29.404">
  <g id="Group_61" data-name="Group 61" transform="matrix(-0.017, -1, 1, -0.017, 0.557, 29.504)">
    <path id="Union_1" data-name="Union 1" d="M2,16.3a2,2,0,0,1-2-2V2A2,2,0,0,1,2,0H25.235a2,2,0,0,1,2,2v.992l.076,0h.813a1,1,0,0,1,1,1v8.6a1,1,0,0,1-1,1h-.813l-.076,0v.72a2,2,0,0,1-2,2Z" transform="translate(0.1 -0.047)"/>
    <rect id="Rectangle_8" data-name="Rectangle 8" width="16.828" height="10.304" rx="1" transform="translate(3.277 2.953)" fill="#fff"/>
  </g>
</svg>
