<svg xmlns="http://www.w3.org/2000/svg" width="94" height="39.001" viewBox="0 0 94 39.001">
  <g id="Group_29" data-name="Group 29" transform="translate(0 0.415)">
    <path id="Union_1" data-name="Union 1" d="M2,39a2,2,0,0,1-2-2V2A2,2,0,0,1,2,0H85.9a2,2,0,0,1,2,2V7.151H93a1,1,0,0,1,1,1V31.5a1,1,0,0,1-1,1H87.9V37a2,2,0,0,1-2,2Z" transform="translate(0 -0.415)"/>
    <rect id="Rectangle_8" data-name="Rectangle 8" width="52" height="24" rx="1" transform="translate(8 7.585)" fill="#f7f7f7"/>
  </g>
</svg>
