<svg xmlns="http://www.w3.org/2000/svg" xmlns:xlink="http://www.w3.org/1999/xlink" width="447" height="956" viewBox="0 0 447 956">
  <defs>
    <linearGradient id="linear-gradient" x1="0.5" x2="0.5" y2="1" gradientUnits="objectBoundingBox">
      <stop offset="0" stop-color="#fff"/>
      <stop offset="1" stop-color="#819eff"/>
    </linearGradient>
  </defs>
  <g id="Group_43" data-name="Group 43" transform="translate(-67 -43)">
    <g id="Rectangle_1" data-name="Rectangle 1" transform="translate(67 122)" stroke="#000" stroke-width="3" fill="url(#linear-gradient)">
      <rect width="447" height="877" rx="30" stroke="none"/>
      <rect x="1.5" y="1.5" width="444" height="874" rx="28.5" fill="none"/>
    </g>
    <path id="Path_17" data-name="Path 17" d="M447-125.446V365a30,30,0,0,1-30,30H30A30,30,0,0,1,0,365V30S45.116-42.651,111.329-25.268c54.838,14.4,125.627,63.372,209.545,38.328S447-125.446,447-125.446Z" transform="translate(67 604)" fill="#3a82af" opacity="0.55"/>
    <g id="Rectangle_2" data-name="Rectangle 2" transform="translate(146 66)" fill="#6698d3" stroke="#000" stroke-width="3">
      <path d="M16,0H274a16,16,0,0,1,16,16V57a0,0,0,0,1,0,0H0a0,0,0,0,1,0,0V16A16,16,0,0,1,16,0Z" stroke="none"/>
      <path d="M16,1.5H274A14.5,14.5,0,0,1,288.5,16V55.5a0,0,0,0,1,0,0H1.5a0,0,0,0,1,0,0V16A14.5,14.5,0,0,1,16,1.5Z" fill="none"/>
    </g>
    <g id="Rectangle_3" data-name="Rectangle 3" transform="translate(198 43)" fill="#e1e8ff" stroke="#000" stroke-width="3">
      <path d="M16,0H171a16,16,0,0,1,16,16v9a0,0,0,0,1,0,0H0a0,0,0,0,1,0,0V16A16,16,0,0,1,16,0Z" stroke="none"/>
      <path d="M16,1.5H171A14.5,14.5,0,0,1,185.5,16v7.5a0,0,0,0,1,0,0H1.5a0,0,0,0,1,0,0V16A14.5,14.5,0,0,1,16,1.5Z" fill="none"/>
    </g>
    <g id="Rectangle_4" data-name="Rectangle 4" transform="translate(122 198)" stroke="#6799d3" stroke-width="6">
      <rect width="253" height="363" stroke="none"/>
      <rect x="3" y="3" width="247" height="357" fill="none"/>
    </g>
    <g id="Group_16" data-name="Group 16" transform="translate(-681 33.704)">
      <circle id="Ellipse_4" data-name="Ellipse 4" cx="78" cy="78" r="78" transform="translate(852 227.296)" fill="#003486"/>
      <g id="Ellipse_5" data-name="Ellipse 5" transform="translate(866 241.296)" fill="#003486" stroke="#fff" stroke-width="5">
        <ellipse cx="64.5" cy="64" rx="64.5" ry="64" stroke="none"/>
        <ellipse cx="64.5" cy="64" rx="62" ry="61.5" fill="none"/>
      </g>
      <g id="Group_15" data-name="Group 15" transform="translate(912.604 258.1)">
        <g id="Rectangle_31" data-name="Rectangle 31" transform="translate(11.396 0.196)" fill="#fff" stroke="#ff953b" stroke-width="2">
          <rect width="13" height="8" rx="2" stroke="none"/>
          <rect x="1" y="1" width="11" height="6" rx="1" fill="none"/>
        </g>
        <g id="Rectangle_28" data-name="Rectangle 28" transform="translate(0.396 71.196)" fill="#fff" stroke="#ff953b" stroke-width="2">
          <rect width="35" height="24" rx="3" stroke="none"/>
          <rect x="1" y="1" width="33" height="22" rx="2" fill="none"/>
        </g>
        <g id="Path_7" data-name="Path 7" transform="translate(1.75 6.446)" fill="#fff">
          <path d="M 0.03143416345119476 47.40592956542969 C -0.1566486358642578 47.40592956542969 -0.2898942530155182 47.38642883300781 -0.3696402013301849 47.3681755065918 C -0.3810407817363739 47.28959274291992 -0.3821119368076324 47.18674468994141 -0.3771858215332031 47.14833068847656 L -0.3690758347511292 47.08502960205078 L -0.3690758347511292 47.02122116088867 L -0.3690758347511292 19.72787094116211 C -0.2142498791217804 19.17389869689941 0.5804978609085083 16.56603622436523 2.433504104614258 14.11727046966553 C 4.558554172515869 11.30901050567627 8.149764060974121 8.590499877929688 8.185793876647949 8.563370704650879 L 8.584214210510254 8.263319969177246 L 8.584383964538574 7.764430522918701 L 8.584383964538574 3.670960426330566 L 8.584383964538574 2.659780263900757 L 7.613712310791016 2.671100378036499 C 7.567440509796143 2.667141437530518 7.32625675201416 2.640584945678711 7.109284400939941 2.505040407180786 C 6.941123962402344 2.400000333786011 6.715924263000488 2.193020343780518 6.701624393463135 1.61085033416748 C 6.694864273071289 1.335970282554626 6.776463985443115 1.252350330352783 6.807184219360352 1.220860362052917 C 6.966134071350098 1.057970285415649 7.360684394836426 0.9567703008651733 7.836884021759033 0.9567703008651733 C 8.009803771972656 0.9567703008651733 8.12718391418457 0.970650315284729 8.128354072570801 0.9707903265953064 L 8.197613716125488 0.9805203080177307 L 8.252923965454102 0.9785802960395813 L 23.38817405700684 0.9785802960395813 L 23.45349502563477 0.9785802960395813 L 23.51826477050781 0.9700803160667419 C 23.51826095581055 0.9700808525085449 23.51825904846191 0.970081090927124 23.51825904846191 0.970081090927124 C 23.51840019226074 0.970081090927124 23.70947265625 0.9467403292655945 23.9794750213623 0.9467403292655945 C 24.61259460449219 0.9467403292655945 25.13340377807617 1.074560284614563 25.33866500854492 1.280320286750793 C 25.37577438354492 1.317520260810852 25.4530143737793 1.394950270652771 25.45243453979492 1.633000373840332 C 25.45138359069824 2.068730354309082 25.29819488525391 2.317200422286987 24.92366409301758 2.490610361099243 C 24.56107139587402 2.658501148223877 24.16107368469238 2.670190572738647 24.12174034118652 2.670924425125122 L 23.10811424255371 2.652360200881958 L 23.11596488952637 3.670960426330566 L 23.11596488952637 7.764430522918701 L 23.11596488952637 8.293660163879395 L 23.55356407165527 8.591300010681152 C 23.59072494506836 8.616610527038574 27.32191467285156 11.17575073242188 29.38927459716797 14.09216022491455 C 31.23334693908691 16.69355964660645 31.82332229614258 19.22859954833984 31.91983413696289 19.69318199157715 L 31.91983413696289 47.39736938476562 L 0.2708541750907898 47.39736938476562 L 0.2262941598892212 47.39736938476562 L 0.1820335537195206 47.40132141113281 C 0.1820525676012039 47.40131759643555 0.1820598542690277 47.40131759643555 0.182055339217186 47.40131759643555 C 0.1817300468683243 47.40131759643555 0.1207148656249046 47.40592956542969 0.03143416345119476 47.40592956542969 Z" stroke="none"/>
          <path d="M 9.584384918212891 1.978580474853516 L 9.583673477172852 8.761928558349609 L 8.787553787231445 9.362049102783203 C 8.752593994140625 9.388401031494141 5.268434524536133 12.02812957763672 3.230934143066406 14.7206916809082 C 1.598087310791016 16.87850189208984 0.8363151550292969 19.1754093170166 0.6309242248535156 19.86886787414551 L 0.6309242248535156 46.39736938476562 L 30.91983413696289 46.39736938476562 L 30.91983413696289 19.79985427856445 C 30.78875160217285 19.21778297424316 30.20505905151367 16.97213935852051 28.57346343994141 14.67047119140625 C 26.61423492431641 11.90663146972656 23.02599334716797 9.441928863525391 22.99117279052734 9.418159484863281 L 22.11596298217773 8.822891235351562 L 22.11596298217773 1.978580474853516 L 9.584384918212891 1.978580474853516 M 23.9794921875 -0.05326080322265625 C 24.87100791931152 -0.05327606201171875 26.45600700378418 0.154815673828125 26.45243453979492 1.635410308837891 C 26.44747352600098 3.695022583007812 24.11595726013184 3.67095947265625 24.11596298217773 3.67095947265625 L 24.11596298217773 7.764430999755859 C 24.11596298217773 7.764430999755859 28.00412368774414 10.40898132324219 30.20509338378906 13.51385116577148 C 32.40606307983398 16.61872100830078 32.91983413696289 19.5964298248291 32.91983413696289 19.5964298248291 L 32.91983413696289 47.49953079223633 C 32.91983413696289 47.49953079223633 32.8922233581543 47.91093063354492 32.72530364990234 48.13539123535156 C 32.55838394165039 48.3598518371582 31.97824478149414 48.39736938476562 31.97824478149414 48.39736938476562 L 0.2708549499511719 48.39736938476562 C 0.2708587646484375 48.39736938476562 -0.6478080749511719 48.47943115234375 -1.057785034179688 48.13539123535156 C -1.467765808105469 47.79135131835938 -1.369075775146484 47.02122116088867 -1.369075775146484 47.02122116088867 L -1.369075775146484 19.5964298248291 C -1.369075775146484 19.5964298248291 -0.6022758483886719 16.47184944152832 1.636083602905273 13.51385116577148 C 3.874444961547852 10.55585098266602 7.584384918212891 7.764430999755859 7.584384918212891 7.764430999755859 L 7.584384918212891 3.67095947265625 C 7.584384918212891 3.67095947265625 5.750953674316406 3.631320953369141 5.701923370361328 1.635410308837891 C 5.652883529663086 -0.3604927062988281 8.252925872802734 -0.02142715454101562 8.252923965454102 -0.02141952514648438 L 23.38817405700684 -0.02141952514648438 C 23.38817405700684 -0.02141952514648438 23.6308479309082 -0.053253173828125 23.9794921875 -0.05326080322265625 Z" stroke="none" fill="#ff953b"/>
        </g>
        <g id="Path_8" data-name="Path 8" transform="translate(1.75 -12.304)" fill="#fff">
          <path d="M 0.03145416453480721 66.15654754638672 C -0.1566464304924011 66.15654754638672 -0.289887934923172 66.13704681396484 -0.3696396350860596 66.11878967285156 C -0.3810429871082306 66.04020690917969 -0.3821123838424683 65.93736267089844 -0.3771858215332031 65.89894866943359 L -0.3690758347511292 65.83564758300781 L -0.3690758347511292 65.77183532714844 L -0.3690758347511292 50.1667366027832 C -0.08605965226888657 49.89207458496094 0.4383745789527893 49.42770004272461 1.166054129600525 48.96953964233398 C 2.648844242095947 48.03593826293945 4.2401442527771 47.56255722045898 5.895744323730469 47.56255722045898 C 6.639533996582031 47.56255722045898 7.401314258575439 47.66127777099609 8.159893989562988 47.85597610473633 C 10.9166841506958 48.56350708007812 13.01797389984131 50.48259735107422 15.05007457733154 52.3384895324707 C 17.19674491882324 54.29901885986328 19.41649436950684 56.32629776000977 22.3876838684082 56.89105606079102 C 24.20788383483887 57.23703765869141 25.86875343322754 57.41246795654297 27.32417488098145 57.41246795654297 C 29.11283302307129 57.41246795654297 30.60147476196289 57.15350723266602 31.75754356384277 56.64213180541992 L 31.91796493530273 66.14798736572266 L 0.2708541750907898 66.14798736572266 L 0.2263041585683823 66.14798736572266 L 0.1819241642951965 66.15194702148438 C 0.1820317953824997 66.15193939208984 0.1820781379938126 66.15193176269531 0.1820643246173859 66.15193176269531 C 0.181626096367836 66.15193176269531 0.1206603199243546 66.15654754638672 0.03145416453480721 66.15654754638672 Z" stroke="none"/>
          <path d="M 30.90094375610352 65.14798736572266 L 30.78076934814453 58.02691650390625 C 29.77185440063477 58.28324508666992 28.61618804931641 58.41246795654297 27.32417488098145 58.41246795654297 C 25.80628395080566 58.41246795654297 24.08258438110352 58.23111724853516 22.20095443725586 57.87346649169922 C 18.95136451721191 57.25578689575195 16.625244140625 55.13136672973633 14.37570381164551 53.07688903808594 C 12.34478378295898 51.22206878662109 10.42649459838867 49.47010803222656 7.911293983459473 48.82457733154297 C 7.233874320983887 48.65071868896484 6.555744171142578 48.56255722045898 5.895744323730469 48.56255722045898 C 4.453214168548584 48.56255722045898 3.059874057769775 48.97252655029297 1.754414200782776 49.78107833862305 C 1.281681299209595 50.07387542724609 0.9027156233787537 50.37077331542969 0.6309241652488708 50.6064453125 L 0.6309241652488708 65.14798736572266 L 30.90094375610352 65.14798736572266 M 0.0314655713737011 67.15654754638672 C -0.2694779336452484 67.15654754638672 -0.7802035808563232 67.11894226074219 -1.057785868644714 66.88600921630859 C -1.467765808105469 66.54196929931641 -1.369075894355774 65.77183532714844 -1.369075894355774 65.77183532714844 L -1.369075894355774 49.76345825195312 C -1.369075894355774 49.76345825195312 2.42262601852417 45.35108184814453 8.408493995666504 46.88736724853516 C 14.39436435699463 48.42365646362305 17.17899322509766 54.88308715820312 22.57442474365234 55.90864944458008 C 31.0980167388916 57.5287971496582 32.72530364990234 54.72319030761719 32.72530364990234 54.72318649291992 L 32.91983413696289 66.25013732910156 C 32.91983413696289 66.25013732910156 32.8922233581543 66.66154479980469 32.72530364990234 66.88600921630859 C 32.55838394165039 67.11048126220703 31.97824478149414 67.14798736572266 31.97824478149414 67.14798736572266 L 0.2708541750907898 67.14798736572266 C 0.2708541750907898 67.14798736572266 0.1750058233737946 67.15654754638672 0.0314655713737011 67.15654754638672 Z" stroke="none" fill="#ff953b"/>
        </g>
        <g id="Rectangle_29" data-name="Rectangle 29" transform="translate(0.396 54.196)" fill="#fff" stroke="#ff953b" stroke-width="2">
          <rect width="35" height="9" rx="4" stroke="none"/>
          <rect x="1" y="1" width="33" height="7" rx="3" fill="none"/>
        </g>
        <g id="Rectangle_30" data-name="Rectangle 30" transform="translate(0.396 63.196)" fill="#fff" stroke="#ff953b" stroke-width="2">
          <rect width="35" height="9" rx="4" stroke="none"/>
          <rect x="1" y="1" width="33" height="7" rx="3" fill="none"/>
        </g>
      </g>
    </g>
    <text id="Your_wallpaper" data-name="Your wallpaper" transform="translate(154 467)" fill="#fff" font-size="29" font-family="HelveticaNeue, Helvetica Neue"><tspan x="0" y="0">your wallpaper</tspan></text>
  </g>
</svg>
