<svg xmlns="http://www.w3.org/2000/svg" width="19.523" height="25.381" viewBox="0 0 19.523 25.381">
  <path id="Icon_ionic-ios-water" data-name="Icon ionic-ios-water" d="M22.369,9.378a27.282,27.282,0,0,0-5.54-5.894.522.522,0,0,0-.635-.006,26.948,26.948,0,0,0-5.521,5.888A18.507,18.507,0,0,0,6.756,19.793c0,.073-.006.153-.006.226A7.973,7.973,0,0,0,7.415,23.2a8.573,8.573,0,0,0,.927,1.6,10.071,10.071,0,0,0,8.163,3.953c5.393,0,9.768-3.911,9.768-8.737C26.273,16.132,24.626,12.563,22.369,9.378ZM17.122,25.5h-.031a.535.535,0,0,1-.159-1.043A7.6,7.6,0,0,0,22.2,19.53a.531.531,0,0,1,1.025.189v.085A5.92,5.92,0,0,1,17.122,25.5Z" transform="translate(-6.75 -3.374)"/>
</svg>
