<svg xmlns="http://www.w3.org/2000/svg" width="17.246" height="17.25" viewBox="0 0 17.246 17.25">
  <path id="Icon_ionic-ios-settings" data-name="Icon ionic-ios-settings" d="M20.322,13.123a2.219,2.219,0,0,1,1.424-2.07,8.8,8.8,0,0,0-1.064-2.564,2.249,2.249,0,0,1-.9.193,2.214,2.214,0,0,1-2.025-3.117A8.77,8.77,0,0,0,15.193,4.5a2.217,2.217,0,0,1-4.141,0A8.8,8.8,0,0,0,8.488,5.564,2.214,2.214,0,0,1,6.463,8.681a2.176,2.176,0,0,1-.9-.193A8.991,8.991,0,0,0,4.5,11.057a2.219,2.219,0,0,1,0,4.141,8.8,8.8,0,0,0,1.064,2.564,2.215,2.215,0,0,1,2.924,2.924,8.848,8.848,0,0,0,2.564,1.064,2.213,2.213,0,0,1,4.132,0,8.8,8.8,0,0,0,2.564-1.064,2.217,2.217,0,0,1,2.924-2.924A8.848,8.848,0,0,0,21.741,15.2,2.23,2.23,0,0,1,20.322,13.123Zm-7.159,3.588a3.593,3.593,0,1,1,3.593-3.593A3.592,3.592,0,0,1,13.163,16.711Z" transform="translate(-4.5 -4.5)" fill="#fff"/>
</svg>
