<svg xmlns="http://www.w3.org/2000/svg" width="57" height="57" viewBox="0 0 57 57">
  <path id="Icon_awesome-temperature-low" data-name="Icon awesome-temperature-low" d="M46.313,0A10.688,10.688,0,1,0,57,10.688,10.7,10.7,0,0,0,46.313,0Zm0,14.25a3.563,3.563,0,1,1,3.563-3.562A3.559,3.559,0,0,1,46.313,14.25ZM28.5,12.469a12.469,12.469,0,0,0-24.937,0V31a16,16,0,1,0,28.5,9.964A15.888,15.888,0,0,0,28.5,31ZM16.031,49.875a8.891,8.891,0,0,1-5.344-16.009v-21.4a5.344,5.344,0,0,1,10.688,0v21.4a8.891,8.891,0,0,1-5.344,16.009Zm1.781-13.927v-2.1a1.781,1.781,0,0,0-3.562,0v2.1a5.344,5.344,0,1,0,3.563,0Z"/>
</svg>
